<svg width="50" height="44" viewBox="0 0 50 44" fill="none" xmlns="http://www.w3.org/2000/svg">
<path d="M28.5258 43.6245C27.9243 43.6245 27.3364 43.547 26.7622 43.3921C26.1971 43.228 25.6958 43.0047 25.2583 42.7222L25.8598 41.2456C26.7257 41.7469 27.6144 41.9976 28.5258 41.9976C29.6652 41.9976 30.2348 41.6056 30.2348 40.8218C30.2348 40.4937 30.13 40.2248 29.9204 40.0151C29.7107 39.8055 29.3735 39.6369 28.9087 39.5093L27.7876 39.1948C26.9399 38.9579 26.3247 38.6206 25.9419 38.1831C25.5682 37.7456 25.3813 37.1577 25.3813 36.4194C25.3813 35.4624 25.673 34.7196 26.2563 34.1909C26.8396 33.6623 27.6554 33.398 28.7036 33.398C29.2049 33.398 29.7244 33.4572 30.2622 33.5757C30.7999 33.6942 31.3104 33.8628 31.7934 34.0816L31.1782 35.5581C30.2212 35.2026 29.3872 35.0249 28.6762 35.0249C27.6827 35.0249 27.186 35.3849 27.186 36.105C27.186 36.4331 27.2908 36.702 27.5005 36.9116C27.7101 37.1121 28.0473 37.2762 28.5122 37.4038L29.6333 37.7183C30.49 37.9552 31.1053 38.2925 31.479 38.73C31.8527 39.1675 32.0395 39.7599 32.0395 40.5073C32.0395 41.5008 31.7296 42.271 31.1098 42.8179C30.4992 43.3556 29.6378 43.6245 28.5258 43.6245Z" fill="white"/>
<path d="M36.9401 43.6245C36.3385 43.6245 35.7506 43.547 35.1764 43.3921C34.6113 43.228 34.11 43.0047 33.6725 42.7222L34.274 41.2456C35.1399 41.7469 36.0286 41.9976 36.9401 41.9976C38.0794 41.9976 38.649 41.6056 38.649 40.8218C38.649 40.4937 38.5442 40.2248 38.3346 40.0151C38.125 39.8055 37.7877 39.6369 37.3229 39.5093L36.2018 39.1948C35.3541 38.9579 34.7389 38.6206 34.3561 38.1831C33.9824 37.7456 33.7955 37.1577 33.7955 36.4194C33.7955 35.4624 34.0872 34.7196 34.6705 34.1909C35.2539 33.6623 36.0696 33.398 37.1178 33.398C37.6191 33.398 38.1386 33.4572 38.6764 33.5757C39.2142 33.6942 39.7246 33.8628 40.2076 34.0816L39.5924 35.5581C38.6354 35.2026 37.8014 35.0249 37.0905 35.0249C36.097 35.0249 35.6002 35.3849 35.6002 36.105C35.6002 36.4331 35.705 36.702 35.9147 36.9116C36.1243 37.1121 36.4615 37.2762 36.9264 37.4038L38.0475 37.7183C38.9043 37.9552 39.5195 38.2925 39.8932 38.73C40.2669 39.1675 40.4537 39.7599 40.4537 40.5073C40.4537 41.5008 40.1438 42.271 39.524 42.8179C38.9134 43.3556 38.052 43.6245 36.9401 43.6245Z" fill="white"/>
<path d="M46.5711 33.562C47.6284 33.562 48.4441 33.8582 49.0183 34.4507C49.5926 35.0431 49.8797 35.8771 49.8797 36.9526C49.8797 38.0373 49.5835 38.8804 48.991 39.4819C48.3986 40.0744 47.56 40.3706 46.4754 40.3706H44.7801V43.4605H42.8933V33.562H46.5711ZM46.5711 38.689C47.4825 38.689 47.9383 38.1239 47.9383 36.9937C47.9383 35.827 47.4506 35.2437 46.4754 35.2437H44.7801V38.689H46.5711Z" fill="white"/>
<path d="M6.49298 0.616996H6.52094L7.18227 5.12862H8.51345L7.60047 0.158517H5.394L4.47616 5.12862H5.81463L6.49298 0.616996ZM1.89039 5.32128C2.78878 5.32128 3.52427 5.01644 3.64341 4.18728C3.7042 3.75685 3.65922 3.47517 3.63855 3.37031C3.42702 2.32898 1.54757 2.02048 1.40655 1.43641C1.38345 1.3352 1.38831 1.23277 1.40169 1.17668C1.43694 1.01695 1.54392 0.842577 1.85392 0.842577C2.14447 0.842577 2.31467 1.02304 2.31467 1.29252C2.31467 1.38275 2.31467 1.5998 2.31467 1.5998H3.55102V1.25228C3.55102 0.168272 2.58212 0 1.87945 0C0.998078 0 0.279608 0.292646 0.147098 1.10352C0.110627 1.323 0.105764 1.52176 0.159255 1.77295C0.373215 2.78867 2.13474 3.08376 2.39004 3.72514C2.43867 3.84586 2.42286 3.9995 2.39976 4.09339C2.35965 4.25556 2.2478 4.42506 1.91714 4.42506C1.60714 4.42506 1.41871 4.24703 1.41871 3.97633L1.41749 3.49346H0.0899605V3.87756C0.0899605 4.98718 0.959176 5.32128 1.89039 5.32128ZM10.7734 0.658454H10.8014L11.6293 5.12741H12.8863L13.7142 0.659673L13.7409 0.658454L13.7725 5.12741H15.0125L14.9031 0.157297H12.8826L12.2711 3.95804H12.2432L11.6341 0.157297H9.61365L9.50424 5.12741H10.743L10.7734 0.658454ZM26.9335 1.04133H26.9615L28.1845 5.07741H29.9496V0.158517H28.723L28.7899 4.05925H28.7631L27.624 0.158517H25.7847V5.07741H27.0028L26.9335 1.04133ZM22.6616 5.27373C23.5722 5.27373 24.304 4.97499 24.3903 4.04705C24.3952 3.99706 24.4049 3.8105 24.4037 3.71905V0.157297H23.1479V3.83367C23.1479 3.89707 23.1467 3.97023 23.1357 4.02389C23.1114 4.14704 23.0044 4.38238 22.6604 4.38238C22.3164 4.38238 22.2094 4.14704 22.1851 4.02389C22.1741 3.97023 22.1729 3.89707 22.1729 3.83367V0.157297H20.9195V3.72027C20.9171 3.81294 20.9268 3.9995 20.9317 4.04827C21.0192 4.97499 21.7511 5.27373 22.6616 5.27373ZM19.7403 4.17143C19.7999 3.74709 19.7561 3.46786 19.7355 3.36299C19.5276 2.33263 17.6664 2.02779 17.529 1.44982C17.5047 1.34983 17.5107 1.24984 17.5229 1.19375C17.5582 1.03524 17.6639 0.862087 17.9715 0.862087C18.2596 0.862087 18.4274 1.04011 18.4274 1.30593C18.4274 1.39739 18.4274 1.61077 18.4274 1.61077H19.6516V1.26691C19.6516 0.195097 18.6912 0.0268261 17.9982 0.0268261C17.1254 0.0268261 16.413 0.313375 16.2829 1.11937C16.2464 1.33642 16.2416 1.53395 16.2938 1.7827C16.5066 2.78867 18.2499 3.0801 18.504 3.71539C18.5502 3.83489 18.5356 3.9873 18.5137 4.0812C18.4736 4.24459 18.3617 4.4092 18.0347 4.4092C17.7271 4.4092 17.5411 4.23483 17.5411 3.96536L17.5399 3.48737H16.2233V3.86781C16.2233 4.96523 17.0853 5.29568 18.008 5.29568C18.8942 5.29446 19.6236 4.99328 19.7403 4.17143ZM33.0083 3.06181H33.5153V3.78245C33.5165 3.84586 33.514 3.91536 33.5043 3.97145C33.4824 4.10436 33.356 4.33116 32.9986 4.33116C32.64 4.33116 32.5147 4.10558 32.4916 3.97145C32.4819 3.91536 32.4795 3.84586 32.4795 3.78245V1.50957C32.4795 1.42787 32.4856 1.34008 32.5002 1.27667C32.5269 1.15351 32.6339 0.914519 32.9937 0.914519C33.3718 0.914519 33.4666 1.16693 33.4885 1.27667C33.5031 1.34495 33.5043 1.46323 33.5043 1.46323V1.74368H34.7528V1.57785C34.7528 1.57785 34.7577 1.40836 34.7443 1.25228C34.6519 0.317033 33.8824 0.0231677 33.0047 0.0231677C32.1257 0.0231677 31.3744 0.319472 31.2662 1.25228C31.2553 1.33276 31.2456 1.48884 31.2456 1.57785V3.66905C31.2456 3.76294 31.248 3.83123 31.2626 3.99706C31.344 4.90182 32.1269 5.22617 33.0059 5.22617C33.8836 5.22617 34.6677 4.90182 34.7492 3.99706C34.7626 3.83123 34.765 3.76172 34.765 3.66905V2.33385H33.0107V3.06181H33.0083ZM49.4857 22.174C49.1575 21.6558 48.7271 21.2315 48.1947 20.8998C47.6622 20.5682 47.0714 20.3048 46.4234 20.1097C45.7755 19.9146 45.1324 19.7573 44.4929 19.639C43.321 19.4012 42.4335 19.1756 41.8305 18.9635C41.2264 18.7513 40.9249 18.3989 40.9249 17.9063C40.9249 17.482 41.1291 17.1088 41.5376 16.7857C41.946 16.4626 42.5758 16.3016 43.428 16.3016C44.1732 16.3016 44.8296 16.454 45.3986 16.7577C45.9663 17.0625 46.41 17.4759 46.7298 18.0002L49.7921 16.5479C49.1879 15.5493 48.3673 14.7603 47.3291 14.1799C46.2909 13.5995 44.9901 13.3105 43.428 13.3105C42.5053 13.3105 41.6664 13.4337 40.9115 13.68C40.1566 13.9263 39.5135 14.2616 38.981 14.686C38.4485 15.1103 38.0352 15.598 37.7422 16.1492C37.4492 16.7003 37.3033 17.2734 37.3033 17.8685C37.3033 18.6489 37.4626 19.2988 37.7823 19.8158C38.102 20.334 38.519 20.7584 39.0333 21.0888C39.5475 21.4205 40.1286 21.679 40.7778 21.8656C41.4257 22.0521 42.0871 22.2131 42.7618 22.3496C43.2407 22.4508 43.7027 22.5447 44.1464 22.6301C44.5902 22.7154 44.9755 22.8215 45.305 22.9483C45.6332 23.0752 45.8994 23.2239 46.1037 23.3934C46.3079 23.5629 46.41 23.7836 46.41 24.0555C46.41 24.5481 46.1876 24.9725 45.7438 25.3285C45.3001 25.6846 44.6339 25.8626 43.7465 25.8626C42.8943 25.8626 42.1491 25.6785 41.5096 25.3115C40.8702 24.9444 40.3644 24.4189 39.9912 23.7336L36.6627 25.2359C37.2839 26.4516 38.1628 27.3795 39.2983 28.0221C40.4337 28.6647 41.8634 28.9866 43.5848 28.9866C44.7032 28.9866 45.6612 28.8342 46.4611 28.5281C47.2598 28.2233 47.9211 27.8282 48.4451 27.3441C48.9691 26.86 49.3544 26.3333 49.6036 25.7651C49.8516 25.1956 49.9769 24.6481 49.9769 24.1226C49.9781 23.3422 49.814 22.6923 49.4857 22.174ZM31.1264 15.4749C30.5587 14.7981 29.839 14.2689 28.9698 13.8861C28.0994 13.5032 27.1596 13.3117 26.147 13.3117C25.1708 13.3117 24.2165 13.4873 23.284 13.8397C22.3516 14.1909 21.5262 14.7018 20.8077 15.3712C20.0892 16.0407 19.5118 16.8601 19.0765 17.8295C18.6413 18.7989 18.4237 19.9097 18.4237 21.1632C18.4237 22.3984 18.645 23.5019 19.0899 24.4713C19.5336 25.4407 20.1196 26.2601 20.8478 26.9296C21.576 27.599 22.3966 28.1099 23.3108 28.4611C24.225 28.8122 25.1525 28.989 26.0935 28.989C27.1232 28.989 28.0811 28.7891 28.9698 28.3891C29.8573 27.9892 30.5855 27.4405 31.1532 26.743V28.9634H34.748V9.19885H31.1264V15.4749ZM30.9805 22.8922C30.7411 23.4434 30.4165 23.9287 30.0092 24.3469C29.6007 24.7652 29.112 25.092 28.5443 25.3261C27.9766 25.5602 27.3554 25.6773 26.6807 25.6773C26.0242 25.6773 25.4066 25.5602 24.8304 25.3261C24.2529 25.092 23.7521 24.7701 23.3254 24.3604C22.8999 23.9507 22.5668 23.4654 22.3273 22.9057C22.0878 22.346 21.9675 21.7473 21.9675 21.112C21.9675 20.4767 22.0878 19.8829 22.3273 19.3305C22.5668 18.7794 22.8999 18.3026 23.3254 17.9014C23.7509 17.5002 24.2529 17.182 24.8304 16.9479C25.4066 16.7138 26.0242 16.5967 26.6807 16.5967C27.3554 16.5967 27.9766 16.7138 28.5443 16.9479C29.112 17.182 29.6007 17.5039 30.0092 17.9136C30.4177 18.3233 30.7411 18.805 30.9805 19.3561C31.22 19.9073 31.3404 20.4938 31.3404 21.112C31.3392 21.7473 31.22 22.3411 30.9805 22.8922ZM6.92212 9.46589L0 28.9622H3.78078L4.97945 25.4907H12.5155L13.7142 28.9622H17.4949L10.5716 9.46589H6.92212ZM6.20365 22.018L8.76023 14.6201L11.3156 22.018H6.20365Z" fill="white"/>
</svg>
