<svg width="255" height="166" viewBox="0 0 255 166" fill="none" xmlns="http://www.w3.org/2000/svg">
<path d="M51.315 25.3212H51.43L54.15 43.8771H59.625L55.87 23.4356H46.795L43.02 43.8771H48.525L51.315 25.3212ZM32.385 44.6695C36.08 44.6695 39.105 43.4157 39.595 40.0055C39.845 38.2351 39.66 37.0767 39.575 36.6454C38.705 32.3625 30.975 31.0936 30.395 28.6914C30.3 28.2751 30.32 27.8539 30.375 27.6232C30.52 26.9662 30.96 26.249 32.235 26.249C33.43 26.249 34.13 26.9913 34.13 28.0996C34.13 28.4707 34.13 29.3634 34.13 29.3634H39.215V27.9341C39.215 23.4757 35.23 22.7836 32.34 22.7836C28.715 22.7836 25.76 23.9872 25.215 27.3223C25.065 28.225 25.045 29.0425 25.265 30.0756C26.145 34.2531 33.39 35.4668 34.44 38.1047C34.64 38.6012 34.575 39.2331 34.48 39.6193C34.315 40.2863 33.855 40.9834 32.495 40.9834C31.22 40.9834 30.445 40.2512 30.445 39.1379L30.44 37.1519H24.98V38.7316C24.98 43.2954 28.555 44.6695 32.385 44.6695ZM68.92 25.4918H69.035L72.44 43.8721H77.61L81.015 25.4968L81.125 25.4918L81.255 43.8721H86.355L85.905 23.4305H77.595L75.08 39.0626H74.965L72.46 23.4305H64.15L63.7 43.8721H68.795L68.92 25.4918ZM135.385 27.0665H135.5L140.53 43.6665H147.79V23.4356H142.745L143.02 39.4789H142.91L138.225 23.4356H130.66V43.6665H135.67L135.385 27.0665ZM117.815 44.4739C121.56 44.4739 124.57 43.2452 124.925 39.4287C124.945 39.2231 124.985 38.4558 124.98 38.0797V23.4305H119.815V38.5511C119.815 38.8119 119.81 39.1128 119.765 39.3334C119.665 39.84 119.225 40.8079 117.81 40.8079C116.395 40.8079 115.955 39.84 115.855 39.3334C115.81 39.1128 115.805 38.8119 115.805 38.5511V23.4305H110.65V38.0847C110.64 38.4658 110.68 39.2331 110.7 39.4337C111.06 43.2452 114.07 44.4739 117.815 44.4739ZM105.8 39.9403C106.045 38.195 105.865 37.0466 105.78 36.6153C104.925 32.3775 97.27 31.1237 96.705 28.7466C96.605 28.3353 96.63 27.9241 96.68 27.6934C96.825 27.0414 97.26 26.3293 98.525 26.3293C99.71 26.3293 100.4 27.0615 100.4 28.1548C100.4 28.5309 100.4 29.4086 100.4 29.4086H105.435V27.9943C105.435 23.586 101.485 22.8939 98.635 22.8939C95.045 22.8939 92.115 24.0725 91.58 27.3875C91.43 28.2802 91.41 29.0926 91.625 30.1157C92.5 34.2531 99.67 35.4518 100.715 38.0646C100.905 38.5561 100.845 39.183 100.755 39.5692C100.59 40.2412 100.13 40.9182 98.785 40.9182C97.52 40.9182 96.755 40.2011 96.755 39.0927L96.75 37.1268H91.335V38.6915C91.335 43.2051 94.88 44.5642 98.675 44.5642C102.32 44.5592 105.32 43.3205 105.8 39.9403ZM160.37 35.3765H162.455V38.3405C162.46 38.6012 162.45 38.8871 162.41 39.1178C162.32 39.6644 161.8 40.5973 160.33 40.5973C158.855 40.5973 158.34 39.6695 158.245 39.1178C158.205 38.8871 158.195 38.6012 158.195 38.3405V28.9923C158.195 28.6563 158.22 28.2952 158.28 28.0344C158.39 27.5279 158.83 26.5449 160.31 26.5449C161.865 26.5449 162.255 27.5831 162.345 28.0344C162.405 28.3153 162.41 28.8017 162.41 28.8017V29.9552H167.545V29.2731C167.545 29.2731 167.565 28.576 167.51 27.9341C167.13 24.0875 163.965 22.8789 160.355 22.8789C156.74 22.8789 153.65 24.0976 153.205 27.9341C153.16 28.2651 153.12 28.907 153.12 29.2731V37.8741C153.12 38.2602 153.13 38.5411 153.19 39.2231C153.525 42.9443 156.745 44.2783 160.36 44.2783C163.97 44.2783 167.195 42.9443 167.53 39.2231C167.585 38.5411 167.595 38.2552 167.595 37.8741V32.3825H160.38V35.3765H160.37ZM228.14 113.983C226.79 111.852 225.02 110.107 222.83 108.743C220.64 107.378 218.21 106.295 215.545 105.493C212.88 104.69 210.235 104.043 207.605 103.557C202.785 102.579 199.135 101.651 196.655 100.779C194.17 99.9059 192.93 98.4565 192.93 96.4304C192.93 94.6852 193.77 93.1506 195.45 91.8215C197.13 90.4925 199.72 89.8306 203.225 89.8306C206.29 89.8306 208.99 90.4574 211.33 91.7062C213.665 92.96 215.49 94.6601 216.805 96.8166L229.4 90.8436C226.915 86.7362 223.54 83.4915 219.27 81.1043C215 78.7171 209.65 77.5285 203.225 77.5285C199.43 77.5285 195.98 78.035 192.875 79.0481C189.77 80.0611 187.125 81.4403 184.935 83.1855C182.745 84.9308 181.045 86.9368 179.84 89.2037C178.635 91.4705 178.035 93.8276 178.035 96.275C178.035 99.4846 178.69 102.158 180.005 104.284C181.32 106.416 183.035 108.161 185.15 109.52C187.265 110.884 189.655 111.947 192.325 112.714C194.99 113.482 197.71 114.144 200.485 114.705C202.455 115.122 204.355 115.508 206.18 115.859C208.005 116.21 209.59 116.646 210.945 117.168C212.295 117.689 213.39 118.301 214.23 118.998C215.07 119.696 215.49 120.603 215.49 121.722C215.49 123.748 214.575 125.493 212.75 126.957C210.925 128.422 208.185 129.154 204.535 129.154C201.03 129.154 197.965 128.397 195.335 126.887C192.705 125.378 190.625 123.216 189.09 120.398L175.4 126.576C177.955 131.576 181.57 135.393 186.24 138.036C190.91 140.679 196.79 142.003 203.87 142.003C208.47 142.003 212.41 141.376 215.7 140.117C218.985 138.863 221.705 137.238 223.86 135.247C226.015 133.256 227.6 131.09 228.625 128.753C229.645 126.411 230.16 124.159 230.16 121.997C230.165 118.788 229.49 116.115 228.14 113.983ZM152.63 86.4303C150.295 83.6469 147.335 81.4704 143.76 79.8956C140.18 78.3209 136.315 77.5335 132.15 77.5335C128.135 77.5335 124.21 78.2557 120.375 79.705C116.54 81.1494 113.145 83.2507 110.19 86.004C107.235 88.7573 104.86 92.1275 103.07 96.1145C101.28 100.101 100.385 104.67 100.385 109.826C100.385 114.906 101.295 119.445 103.125 123.432C104.95 127.419 107.36 130.789 110.355 133.542C113.35 136.296 116.725 138.397 120.485 139.841C124.245 141.286 128.06 142.013 131.93 142.013C136.165 142.013 140.105 141.19 143.76 139.545C147.41 137.9 150.405 135.644 152.74 132.775V141.907H167.525V60.6176H152.63V86.4303ZM152.03 116.937C151.045 119.204 149.71 121.2 148.035 122.92C146.355 124.64 144.345 125.984 142.01 126.947C139.675 127.91 137.12 128.392 134.345 128.392C131.645 128.392 129.105 127.91 126.735 126.947C124.36 125.984 122.3 124.66 120.545 122.975C118.795 121.29 117.425 119.294 116.44 116.992C115.455 114.69 114.96 112.228 114.96 109.615C114.96 107.002 115.455 104.56 116.44 102.288C117.425 100.021 118.795 98.0603 120.545 96.4104C122.295 94.7604 124.36 93.4514 126.735 92.4885C129.105 91.5257 131.645 91.0442 134.345 91.0442C137.12 91.0442 139.675 91.5257 142.01 92.4885C144.345 93.4514 146.355 94.7754 148.035 96.4605C149.715 98.1456 151.045 100.127 152.03 102.393C153.015 104.66 153.51 107.072 153.51 109.615C153.505 112.228 153.015 114.67 152.03 116.937ZM53.08 61.7159L24.61 141.902H40.16L45.09 127.624H76.085L81.015 141.902H96.565L68.09 61.7159H53.08ZM50.125 113.341L60.64 82.9147L71.15 113.341H50.125Z" fill="black"/>
</svg>
