<svg width="148" height="54" viewBox="0 0 148 54" fill="none" xmlns="http://www.w3.org/2000/svg">
<path d="M12.1482 1.13881H12.2005L13.4378 9.46609H15.9284L14.2202 0.29258H10.092L8.37475 9.46609H10.879L12.1482 1.13881ZM3.53686 9.82169C5.21772 9.82169 6.5938 9.25904 6.81671 7.72862C6.93043 6.93415 6.84627 6.41426 6.80761 6.22071C6.41184 4.29868 2.89545 3.72927 2.63161 2.65123C2.58839 2.46443 2.59749 2.27537 2.62251 2.17185C2.68847 1.87702 2.88863 1.55518 3.46863 1.55518C4.01224 1.55518 4.33067 1.88827 4.33067 2.38565C4.33067 2.5522 4.33067 2.95281 4.33067 2.95281H6.64384V2.31138C6.64384 0.310585 4.83106 0 3.51639 0C1.86737 0 0.523137 0.540148 0.275215 2.03681C0.20698 2.44192 0.197882 2.80877 0.29796 3.2724C0.698274 5.14716 3.99404 5.69181 4.47169 6.87564C4.56267 7.09845 4.5331 7.38202 4.48988 7.55532C4.41482 7.85465 4.20557 8.16749 3.5869 8.16749C3.0069 8.16749 2.65435 7.8389 2.65435 7.33926L2.65208 6.44802H0.168313V7.15696C0.168313 9.20502 1.79459 9.82169 3.53686 9.82169ZM20.1567 1.21533H20.209L21.758 9.46385H24.1098L25.6587 1.21758L25.7088 1.21533L25.7679 9.46385H28.0879L27.8832 0.29033H24.103L22.9589 7.3055H22.9066L21.7671 0.29033H17.9868L17.7821 9.46385H20.0998L20.1567 1.21533ZM50.3918 1.92203H50.4441L52.7322 9.37157H56.0348V0.29258H53.7398L53.8649 7.49231H53.8149L51.6837 0.29258H48.2424V9.37157H50.5214L50.3918 1.92203ZM42.3991 9.73392C44.1027 9.73392 45.472 9.18252 45.6335 7.4698C45.6426 7.37752 45.6608 7.03318 45.6585 6.86438V0.29033H43.3089V7.07594C43.3089 7.19297 43.3067 7.32801 43.2862 7.42704C43.2407 7.65435 43.0405 8.08872 42.3969 8.08872C41.7532 8.08872 41.553 7.65435 41.5075 7.42704C41.4871 7.32801 41.4848 7.19297 41.4848 7.07594V0.29033H39.1398V6.86663C39.1352 7.03768 39.1534 7.38202 39.1625 7.47205C39.3263 9.18252 40.6955 9.73392 42.3991 9.73392ZM36.9335 7.69936C37.0449 6.91615 36.9631 6.40076 36.9244 6.2072C36.5354 4.30543 33.0532 3.74278 32.7962 2.67598C32.7507 2.49143 32.762 2.30688 32.7848 2.20335C32.8507 1.91077 33.0486 1.59119 33.6241 1.59119C34.1631 1.59119 34.477 1.91978 34.477 2.41041C34.477 2.57921 34.477 2.97307 34.477 2.97307H36.7674V2.33839C36.7674 0.360098 34.9706 0.0495139 33.6741 0.0495139C32.041 0.0495139 30.7082 0.578409 30.4648 2.06607C30.3965 2.46668 30.3875 2.83128 30.4853 3.2904C30.8833 5.14716 34.1449 5.68506 34.6203 6.85763C34.7067 7.07819 34.6794 7.35952 34.6385 7.53282C34.5634 7.8344 34.3542 8.13823 33.7424 8.13823C33.1669 8.13823 32.8189 7.81639 32.8189 7.31901L32.8166 6.43677H30.3533V7.13896C30.3533 9.16451 31.966 9.77443 33.6923 9.77443C35.3504 9.77218 36.7151 9.21628 36.9335 7.69936ZM61.7575 5.6513H62.706V6.98141C62.7082 7.09845 62.7037 7.22673 62.6855 7.33026C62.6446 7.57558 62.408 7.99419 61.7393 7.99419C61.0683 7.99419 60.834 7.57783 60.7908 7.33026C60.7726 7.22673 60.7681 7.09845 60.7681 6.98141V2.78626C60.7681 2.63547 60.7794 2.47343 60.8067 2.3564C60.8568 2.12908 61.0569 1.68796 61.7302 1.68796C62.4376 1.68796 62.615 2.15384 62.6559 2.3564C62.6832 2.48243 62.6855 2.70074 62.6855 2.70074V3.21838H65.0214V2.9123C65.0214 2.9123 65.0305 2.59946 65.0055 2.31138C64.8326 0.585161 63.3929 0.0427614 61.7507 0.0427614C60.1062 0.0427614 58.7006 0.589662 58.4981 2.31138C58.4776 2.45992 58.4594 2.748 58.4594 2.9123V6.77211C58.4594 6.9454 58.464 7.07144 58.4913 7.37752C58.6437 9.04748 60.1085 9.64615 61.7529 9.64615C63.3951 9.64615 64.8622 9.04748 65.0146 7.37752C65.0396 7.07144 65.0442 6.94315 65.0442 6.77211V4.30768H61.762V5.6513H61.7575ZM92.5862 40.9275C91.9721 39.971 91.1669 39.1877 90.1707 38.5756C89.1744 37.9634 88.069 37.4773 86.8567 37.1172C85.6444 36.7571 84.4412 36.4668 83.2448 36.2484C81.0522 35.8096 79.3918 35.3932 78.2636 35.0016C77.1332 34.61 76.5691 33.9596 76.5691 33.0503C76.5691 32.2671 76.9512 31.5784 77.7154 30.982C78.4797 30.3856 79.6579 30.0885 81.2523 30.0885C82.6466 30.0885 83.8748 30.3698 84.9393 30.9302C86.0015 31.4929 86.8317 32.2558 87.4299 33.2236L93.1594 30.5431C92.0289 28.6999 90.4936 27.2437 88.5512 26.1724C86.6088 25.1011 84.1751 24.5677 81.2523 24.5677C79.526 24.5677 77.9565 24.795 76.5441 25.2497C75.1316 25.7043 73.9284 26.3232 72.9322 27.1064C71.9359 27.8896 71.1626 28.7899 70.6144 29.8072C70.0663 30.8245 69.7933 31.8822 69.7933 32.9805C69.7933 34.4209 70.0913 35.6205 70.6895 36.5748C71.2877 37.5313 72.0678 38.3145 73.03 38.9244C73.9921 39.5366 75.0793 40.0137 76.2939 40.3581C77.5062 40.7024 78.7435 40.9995 80.0059 41.2516C80.902 41.4384 81.7663 41.6117 82.5965 41.7692C83.4267 41.9267 84.1478 42.1226 84.7642 42.3566C85.3783 42.5907 85.8764 42.8653 86.2585 43.1781C86.6406 43.4909 86.8317 43.8983 86.8317 44.4002C86.8317 45.3094 86.4155 46.0926 85.5853 46.7498C84.7551 47.407 83.5086 47.7356 81.8482 47.7356C80.2538 47.7356 78.8595 47.3957 77.6631 46.7183C76.4667 46.0409 75.5205 45.0709 74.8223 43.806L68.5947 46.5788C69.7569 48.8226 71.4014 50.5354 73.5258 51.7214C75.6502 52.9075 78.325 53.5017 81.5457 53.5017C83.6383 53.5017 85.4306 53.2203 86.9272 52.6554C88.4216 52.0928 89.6589 51.3636 90.6392 50.4701C91.6195 49.5766 92.3405 48.6043 92.8068 47.5555C93.2708 46.5045 93.5051 45.494 93.5051 44.524C93.5074 43.0836 93.2003 41.884 92.5862 40.9275ZM58.2366 28.5626C57.1744 27.3135 55.8278 26.3367 54.2016 25.63C52.573 24.9233 50.8148 24.57 48.9202 24.57C47.0937 24.57 45.3082 24.8941 43.5637 25.5445C41.8191 26.1927 40.2747 27.1357 38.9305 28.3713C37.5863 29.6069 36.5059 31.1193 35.6916 32.9085C34.8773 34.6978 34.4702 36.7481 34.4702 39.0617C34.4702 41.3416 34.8842 43.3784 35.7166 45.1676C36.5468 46.9569 37.6431 48.4693 39.0056 49.7049C40.368 50.9405 41.9033 51.8835 43.6137 52.5317C45.3242 53.1798 47.0596 53.5062 48.8201 53.5062C50.7466 53.5062 52.5389 53.1371 54.2016 52.3989C55.862 51.6607 57.2244 50.6479 58.2866 49.3605V53.4589H65.0123V16.9787H58.2366V28.5626ZM57.9636 42.2531C57.5155 43.2704 56.9082 44.1661 56.1463 44.9381C55.382 45.71 54.4677 46.3132 53.4055 46.7453C52.3433 47.1774 51.181 47.3935 49.9187 47.3935C48.6904 47.3935 47.535 47.1774 46.4569 46.7453C45.3765 46.3132 44.4394 45.719 43.641 44.9628C42.8449 44.2066 42.2217 43.3109 41.7736 42.2778C41.3256 41.2448 41.1004 40.1398 41.1004 38.9672C41.1004 37.7946 41.3256 36.6986 41.7736 35.679C42.2217 34.6618 42.8449 33.7818 43.641 33.0413C44.4371 32.3009 45.3765 31.7134 46.4569 31.2813C47.535 30.8492 48.6904 30.6331 49.9187 30.6331C51.181 30.6331 52.3433 30.8492 53.4055 31.2813C54.4677 31.7134 55.382 32.3076 56.1463 33.0638C56.9105 33.82 57.5155 34.709 57.9636 35.7263C58.4117 36.7436 58.6369 37.8261 58.6369 38.9672C58.6346 40.1398 58.4117 41.2358 57.9636 42.2531ZM12.9511 17.4715L0 53.4567H7.07373L9.31639 47.0491H23.4161L25.6587 53.4567H32.7325L19.7791 17.4715H12.9511ZM11.6068 40.6394L16.3901 26.9849L21.1711 40.6394H11.6068Z" fill="white"/>
<path d="M108.133 53.8036C106.966 53.8036 105.818 53.6578 104.688 53.3661C103.576 53.0562 102.591 52.6278 101.735 52.0809L102.801 49.4559C104.533 50.4403 106.31 50.9325 108.133 50.9325C109.354 50.9325 110.275 50.7046 110.895 50.2489C111.514 49.7932 111.824 49.1278 111.824 48.2528C111.824 47.5236 111.597 46.9312 111.141 46.4755C110.703 46.0015 110.001 45.6369 109.035 45.3817L106.793 44.7528C105.098 44.2788 103.867 43.6044 103.102 42.7294C102.336 41.8544 101.953 40.6877 101.953 39.2294C101.953 37.3882 102.528 35.9481 103.676 34.9091C104.824 33.87 106.429 33.3505 108.488 33.3505C109.473 33.3505 110.485 33.4689 111.524 33.7059C112.581 33.9247 113.574 34.2437 114.504 34.663L113.41 37.288C111.551 36.577 109.892 36.2216 108.434 36.2216C107.358 36.2216 106.538 36.4312 105.973 36.8505C105.408 37.2697 105.125 37.8804 105.125 38.6825C105.125 39.4117 105.353 40.0132 105.809 40.4872C106.264 40.9429 106.975 41.2984 107.942 41.5536L110.184 42.1825C111.879 42.6564 113.11 43.34 113.875 44.2333C114.641 45.1083 115.024 46.2749 115.024 47.7333C115.024 49.6473 114.413 51.1421 113.192 52.2176C111.988 53.2749 110.302 53.8036 108.133 53.8036Z" fill="white"/>
<path d="M123.254 53.8036C122.087 53.8036 120.939 53.6578 119.809 53.3661C118.697 53.0562 117.712 52.6278 116.856 52.0809L117.922 49.4559C119.654 50.4403 121.431 50.9325 123.254 50.9325C124.475 50.9325 125.396 50.7046 126.016 50.2489C126.636 49.7932 126.945 49.1278 126.945 48.2528C126.945 47.5236 126.718 46.9312 126.262 46.4755C125.824 46.0015 125.123 45.6369 124.156 45.3817L121.914 44.7528C120.219 44.2788 118.988 43.6044 118.223 42.7294C117.457 41.8544 117.074 40.6877 117.074 39.2294C117.074 37.3882 117.649 35.9481 118.797 34.9091C119.945 33.87 121.55 33.3505 123.61 33.3505C124.594 33.3505 125.606 33.4689 126.645 33.7059C127.702 33.9247 128.695 34.2437 129.625 34.663L128.531 37.288C126.672 36.577 125.013 36.2216 123.555 36.2216C122.479 36.2216 121.659 36.4312 121.094 36.8505C120.529 37.2697 120.246 37.8804 120.246 38.6825C120.246 39.4117 120.474 40.0132 120.93 40.4872C121.386 40.9429 122.097 41.2984 123.063 41.5536L125.305 42.1825C127 42.6564 128.231 43.34 128.996 44.2333C129.762 45.1083 130.145 46.2749 130.145 47.7333C130.145 49.6473 129.534 51.1421 128.313 52.2176C127.11 53.2749 125.423 53.8036 123.254 53.8036Z" fill="white"/>
<path d="M140.781 33.6786C142.841 33.6786 144.436 34.2619 145.567 35.4286C146.697 36.577 147.262 38.2085 147.262 40.3231C147.262 42.4377 146.679 44.0874 145.512 45.2723C144.345 46.439 142.714 47.0223 140.617 47.0223H136.899V53.4755H133.617V33.6786H140.781ZM140.781 44.0966C142.841 44.0966 143.871 42.857 143.871 40.3778C143.871 37.8622 142.787 36.6044 140.617 36.6044H136.899V44.0966H140.781Z" fill="white"/>
</svg>
