<svg width="120" height="12" viewBox="0 0 120 12" fill="none" xmlns="http://www.w3.org/2000/svg">
<path d="M15.059 1.39138H15.1248L16.6801 11.5655H19.8109L17.6637 0.35747H12.4743L10.3157 11.5655H13.4636L15.059 1.39138ZM4.23436 12C6.34725 12 8.07702 11.3126 8.35721 9.44271C8.50017 8.47204 8.39438 7.83685 8.34578 7.60037C7.84829 5.25206 3.42809 4.55637 3.09643 3.23923C3.04211 3.011 3.05354 2.78002 3.08499 2.65353C3.16791 2.29331 3.41951 1.90009 4.14859 1.90009C4.83192 1.90009 5.23219 2.30706 5.23219 2.91476C5.23219 3.11824 5.23219 3.6077 5.23219 3.6077H8.13992V2.82401C8.13992 0.379469 5.8612 0 4.20863 0C2.13576 0 0.446023 0.659945 0.134379 2.48854C0.0486054 2.9835 0.0371685 3.43171 0.16297 3.99817C0.666175 6.28873 4.80904 6.95417 5.40946 8.40055C5.52382 8.67278 5.48666 9.01925 5.43233 9.23098C5.33798 9.5967 5.07494 9.97892 4.29726 9.97892C3.56818 9.97892 3.12502 9.57745 3.12502 8.967L3.12216 7.87809H0V8.74427C0 11.2466 2.04427 12 4.23436 12ZM25.126 1.48488H25.1917L27.1388 11.5628H30.0951L32.0422 1.48763L32.1051 1.48488L32.1794 11.5628H35.0957L34.8384 0.354721H30.0865L28.6484 8.92576H28.5826L27.1502 0.354721H22.3984L22.141 11.5628H25.0545L25.126 1.48488ZM63.1323 2.3483H63.198L66.0743 11.45H70.2257V0.35747H67.3409L67.4982 9.15399H67.4352L64.7563 0.35747H60.4304V11.45H63.2952L63.1323 2.3483ZM53.0853 11.8928C55.2268 11.8928 56.948 11.2191 57.151 9.12649C57.1624 9.01375 57.1853 8.59303 57.1824 8.3868V0.354721H54.229V8.64528C54.229 8.78827 54.2261 8.95325 54.2004 9.07424C54.1432 9.35197 53.8916 9.88268 53.0825 9.88268C52.2733 9.88268 52.0217 9.35197 51.9645 9.07424C51.9388 8.95325 51.936 8.78827 51.936 8.64528V0.354721H48.9882V8.38955C48.9825 8.59853 49.0053 9.01925 49.0168 9.12924C49.2226 11.2191 50.9438 11.8928 53.0853 11.8928ZM46.2149 9.40697C46.3549 8.45005 46.252 7.82035 46.2034 7.58387C45.7145 5.26031 41.3372 4.57287 41.0141 3.26948C40.9569 3.044 40.9712 2.81852 40.9998 2.69203C41.0827 2.33456 41.3315 1.94409 42.0548 1.94409C42.7324 1.94409 43.127 2.34555 43.127 2.945C43.127 3.15124 43.127 3.63245 43.127 3.63245H46.0061V2.85701C46.0061 0.439963 43.7474 0.0604953 42.1177 0.0604953C40.0649 0.0604953 38.3894 0.706691 38.0835 2.52429C37.9977 3.01375 37.9863 3.45921 38.1092 4.02016C38.6096 6.28873 42.7096 6.94592 43.3071 8.37855C43.4158 8.64803 43.3815 8.99175 43.33 9.20348C43.2356 9.57195 42.9726 9.94317 42.2035 9.94317C41.4801 9.94317 41.0427 9.54995 41.0427 8.94225L41.0398 7.86434H37.9434V8.72227C37.9434 11.1971 39.9705 11.9423 42.1406 11.9423C44.2249 11.9395 45.9404 11.2603 46.2149 9.40697ZM77.4193 6.90467H78.6116V8.52979C78.6144 8.67278 78.6087 8.82951 78.5858 8.956C78.5344 9.25573 78.237 9.76718 77.3964 9.76718C76.553 9.76718 76.2585 9.25848 76.2042 8.956C76.1813 8.82951 76.1756 8.67278 76.1756 8.52979V3.40422C76.1756 3.21998 76.1899 3.022 76.2242 2.87901C76.2871 2.60128 76.5387 2.06233 77.385 2.06233C78.2742 2.06233 78.4972 2.63153 78.5487 2.87901C78.583 3.033 78.5858 3.29972 78.5858 3.29972V3.93217H81.5221V3.5582C81.5221 3.5582 81.5336 3.17599 81.5021 2.82401C81.2848 0.714941 79.475 0.0522453 77.4107 0.0522453C75.3436 0.0522453 73.5766 0.72044 73.3222 2.82401C73.2964 3.0055 73.2736 3.35747 73.2736 3.5582V8.27406C73.2736 8.48579 73.2793 8.63978 73.3136 9.01375C73.5052 11.0541 75.3464 11.7855 77.4136 11.7855C79.4779 11.7855 81.322 11.0541 81.5136 9.01375C81.545 8.63978 81.5507 8.48304 81.5507 8.27406V5.26306H77.425V6.90467H77.4193Z" fill="black"/>
<path d="M105.419 12.0002C104.315 12.0002 103.379 11.8028 102.609 11.4082C101.851 11.0028 101.199 10.5015 100.653 9.90416L102.726 8.33616C103.039 8.84816 103.423 9.24282 103.88 9.52016C104.337 9.78682 104.845 9.92016 105.402 9.92016C105.703 9.92016 105.965 9.87749 106.188 9.79216C106.422 9.70682 106.617 9.59482 106.773 9.45616C106.94 9.30682 107.063 9.13616 107.141 8.94416C107.219 8.75216 107.258 8.55482 107.258 8.35216C107.258 8.10682 107.186 7.89882 107.041 7.72816C106.896 7.55749 106.706 7.41349 106.472 7.29616C106.238 7.16816 105.965 7.05616 105.653 6.96016C105.352 6.86416 105.04 6.76816 104.716 6.67216C104.304 6.54416 103.891 6.40549 103.479 6.25616C103.067 6.10682 102.693 5.90949 102.359 5.66416C102.035 5.40816 101.768 5.09882 101.556 4.73616C101.355 4.36282 101.255 3.89882 101.255 3.34416C101.255 2.87482 101.355 2.43749 101.556 2.03216C101.757 1.62682 102.035 1.27482 102.392 0.976157C102.76 0.666824 103.189 0.426824 103.68 0.256157C104.17 0.0854905 104.711 0.000157356 105.302 0.000157356C105.792 0.000157356 106.233 0.0428238 106.623 0.128157C107.024 0.21349 107.386 0.330824 107.71 0.480157C108.044 0.62949 108.345 0.810823 108.613 1.02416C108.891 1.22682 109.153 1.45082 109.399 1.69616L107.526 3.05616C107.002 2.30949 106.266 1.93616 105.318 1.93616C104.761 1.93616 104.337 2.06416 104.048 2.32016C103.758 2.57616 103.613 2.89082 103.613 3.26416C103.613 3.49882 103.68 3.69616 103.813 3.85616C103.947 4.01616 104.126 4.16016 104.349 4.28816C104.583 4.40549 104.85 4.51216 105.151 4.60816C105.452 4.70416 105.77 4.80549 106.104 4.91216C106.517 5.04016 106.929 5.18949 107.342 5.36016C107.765 5.52016 108.144 5.73349 108.479 6.00016C108.825 6.25616 109.103 6.57616 109.315 6.96016C109.527 7.34416 109.633 7.81349 109.633 8.36816C109.633 8.82682 109.538 9.27482 109.348 9.71216C109.159 10.1495 108.886 10.5388 108.529 10.8802C108.172 11.2108 107.732 11.4828 107.208 11.6962C106.684 11.8988 106.088 12.0002 105.419 12.0002Z" fill="black"/>
<path d="M110.728 0.160157H114.908C115.544 0.160157 116.129 0.272157 116.664 0.496157C117.199 0.70949 117.662 1.00282 118.052 1.37616C118.442 1.74949 118.749 2.19216 118.972 2.70416C119.195 3.20549 119.306 3.74416 119.306 4.32016C119.306 4.89616 119.195 5.44016 118.972 5.95216C118.749 6.46416 118.442 6.90682 118.052 7.28016C117.662 7.65349 117.194 7.95216 116.647 8.17616C116.112 8.38949 115.527 8.49616 114.892 8.49616H113.002V11.8402H110.728V0.160157ZM113.002 2.17616V6.48016H114.741C115.075 6.48016 115.382 6.42682 115.661 6.32016C115.939 6.20282 116.179 6.04816 116.38 5.85616C116.58 5.65349 116.737 5.42416 116.848 5.16816C116.959 4.90149 117.015 4.61882 117.015 4.32016C117.015 4.02149 116.959 3.74416 116.848 3.48816C116.737 3.22149 116.58 2.99216 116.38 2.80016C116.179 2.60816 115.939 2.45882 115.661 2.35216C115.382 2.23482 115.075 2.17616 114.741 2.17616H113.002Z" fill="black"/>
<path d="M95.7658 12C94.6622 12 93.7257 11.8027 92.9565 11.408C92.1984 11.0027 91.5463 10.5013 91 9.904L93.0736 8.336C93.3857 8.848 93.7703 9.24267 94.2274 9.52C94.6845 9.78667 95.1917 9.92 95.7491 9.92C96.0501 9.92 96.3121 9.87733 96.535 9.792C96.7692 9.70667 96.9643 9.59467 97.1203 9.456C97.2875 9.30667 97.4102 9.136 97.4882 8.944C97.5663 8.752 97.6053 8.55467 97.6053 8.352C97.6053 8.10667 97.5328 7.89867 97.3879 7.728C97.243 7.55733 97.0534 7.41333 96.8193 7.296C96.5852 7.168 96.3121 7.056 95.9999 6.96C95.6989 6.864 95.3868 6.768 95.0635 6.672C94.651 6.544 94.2385 6.40533 93.8261 6.256C93.4136 6.10667 93.0401 5.90933 92.7057 5.664C92.3824 5.408 92.1148 5.09867 91.903 4.736C91.7023 4.36267 91.602 3.89867 91.602 3.344C91.602 2.87467 91.7023 2.43733 91.903 2.032C92.1037 1.62667 92.3824 1.27467 92.7391 0.976C93.107 0.666667 93.5362 0.426667 94.0267 0.256C94.5172 0.0853332 95.0579 0 95.6488 0C96.1393 0 96.5796 0.0426664 96.9698 0.127999C97.3712 0.213333 97.7335 0.330666 98.0568 0.48C98.3912 0.629333 98.6922 0.810666 98.9598 1.024C99.2385 1.22667 99.5005 1.45067 99.7457 1.696L97.8728 3.056C97.3489 2.30933 96.6131 1.936 95.6655 1.936C95.1081 1.936 94.6845 2.064 94.3946 2.32C94.1048 2.576 93.9598 2.89067 93.9598 3.264C93.9598 3.49867 94.0267 3.696 94.1605 3.856C94.2943 4.016 94.4726 4.16 94.6956 4.288C94.9297 4.40533 95.1973 4.512 95.4983 4.608C95.7993 4.704 96.117 4.80533 96.4514 4.912C96.8639 5.04 97.2764 5.18933 97.6889 5.36C98.1125 5.52 98.4915 5.73333 98.826 6C99.1716 6.256 99.4503 6.576 99.6621 6.96C99.8739 7.344 99.9798 7.81333 99.9798 8.368C99.9798 8.82667 99.8851 9.27467 99.6955 9.712C99.506 10.1493 99.2329 10.5387 98.8762 10.88C98.5194 11.2107 98.0791 11.4827 97.5551 11.696C97.0311 11.8987 96.4347 12 95.7658 12Z" fill="black"/>
</svg>
